<svg width="167" height="48" viewBox="0 0 167 48" fill="none" xmlns="http://www.w3.org/2000/svg">
<path d="M51.7216 23V5.54545H63.0739V8.19602H54.8835V12.9347H62.4858V15.5852H54.8835V20.3494H63.142V23H51.7216ZM70.1418 5.54545L73.9855 11.9375H74.1219L77.9827 5.54545H81.5878L76.2099 14.2727L81.673 23H78.0082L74.1219 16.6506H73.9855L70.0991 23H66.4514L71.9656 14.2727L66.5196 5.54545H70.1418ZM85.27 23V5.54545H91.8155C93.1564 5.54545 94.2814 5.79545 95.1905 6.29545C96.1053 6.79545 96.7956 7.48295 97.2615 8.35795C97.7331 9.22727 97.9689 10.2159 97.9689 11.3239C97.9689 12.4432 97.7331 13.4375 97.2615 14.3068C96.7899 15.1761 96.0939 15.8608 95.1734 16.3608C94.253 16.8551 93.1195 17.1023 91.7729 17.1023H87.4348V14.5028H91.3467C92.1308 14.5028 92.7729 14.3665 93.2729 14.0938C93.7729 13.821 94.1422 13.446 94.3808 12.9688C94.6251 12.4915 94.7473 11.9432 94.7473 11.3239C94.7473 10.7045 94.6251 10.1591 94.3808 9.6875C94.1422 9.21591 93.77 8.84943 93.2643 8.58807C92.7643 8.32102 92.1195 8.1875 91.3297 8.1875H88.432V23H85.27ZM101.915 23V5.54545H113.268V8.19602H105.077V12.9347H112.68V15.5852H105.077V20.3494H113.336V23H101.915ZM132.037 5.54545V23H129.225L121 11.1108H120.855V23H117.693V5.54545H120.523L128.739 17.4432H128.892V5.54545H132.037ZM146.168 10.3438C146.089 9.59943 145.754 9.01989 145.163 8.60511C144.577 8.19034 143.816 7.98295 142.879 7.98295C142.219 7.98295 141.654 8.08239 141.183 8.28125C140.711 8.48011 140.35 8.75 140.1 9.09091C139.85 9.43182 139.722 9.82102 139.717 10.2585C139.717 10.6222 139.799 10.9375 139.964 11.2045C140.134 11.4716 140.364 11.6989 140.654 11.8864C140.944 12.0682 141.265 12.2216 141.617 12.3466C141.969 12.4716 142.325 12.5767 142.683 12.6619L144.319 13.071C144.978 13.2244 145.612 13.4318 146.219 13.6932C146.833 13.9545 147.381 14.2841 147.864 14.6818C148.353 15.0795 148.739 15.5597 149.023 16.1222C149.308 16.6847 149.45 17.3437 149.45 18.0994C149.45 19.1222 149.188 20.0227 148.665 20.8011C148.143 21.5739 147.387 22.179 146.398 22.6165C145.415 23.0483 144.225 23.2642 142.827 23.2642C141.469 23.2642 140.29 23.054 139.29 22.6335C138.296 22.2131 137.518 21.5994 136.955 20.7926C136.398 19.9858 136.097 19.0028 136.052 17.8438H139.163C139.208 18.4517 139.396 18.9574 139.725 19.3608C140.055 19.7642 140.484 20.0653 141.012 20.2642C141.546 20.4631 142.143 20.5625 142.802 20.5625C143.489 20.5625 144.092 20.4602 144.609 20.2557C145.131 20.0455 145.54 19.7557 145.836 19.3864C146.131 19.0114 146.282 18.5739 146.288 18.0739C146.282 17.6193 146.148 17.2443 145.887 16.9489C145.626 16.6477 145.259 16.3977 144.788 16.1989C144.322 15.9943 143.776 15.8125 143.151 15.6534L141.165 15.142C139.728 14.7727 138.592 14.2131 137.756 13.4631C136.927 12.7074 136.512 11.7045 136.512 10.4545C136.512 9.42614 136.79 8.52557 137.347 7.75284C137.91 6.98011 138.674 6.38068 139.64 5.95454C140.606 5.52273 141.7 5.30682 142.921 5.30682C144.16 5.30682 145.245 5.52273 146.177 5.95454C147.114 6.38068 147.85 6.97443 148.384 7.73579C148.918 8.49148 149.194 9.3608 149.211 10.3438H146.168ZM153.468 23V5.54545H164.821V8.19602H156.63V12.9347H164.233V15.5852H156.63V20.3494H164.889V23H153.468Z" fill="white"/>
<path d="M0 27.0559V19.6434L3.21055 18.2448L6.4211 16.7063C7.39823 14.6084 10.9159 11.1678 11.5859 10.2727C12.4234 9.15385 10.6088 3.13986 10.7484 3C15.7736 3 18.9841 5.93706 19.9613 7.47552L31.5472 8.1665C35.1765 8.72594 42.5356 12.3427 43.6523 20.6224C44.7355 20.296 47.1532 18.049 47.5999 16.7063C47.6727 16.4874 47.7227 16.2253 47.7483 15.9385C47.3889 16.0843 46.9703 16.2054 46.4832 16.2867C44.8252 16.5636 42.4351 13.7692 44.529 12.5105C47.0031 11.0231 47.9187 14.0263 47.7483 15.9385C47.7227 16.2253 47.6727 16.4874 47.5999 16.7063C47.1532 18.049 44.7355 20.296 43.6523 20.6224C44.7691 28.9021 39.9225 34.6084 36.8125 36.4349L36.712 42.3007L35.8744 43H30.57L30.1513 42.7203L29.8721 42.4406V40.2028L29.0346 39.6434L24.4281 39.9231L19.6821 39.6434L18.9841 40.2028V42.4406L18.2862 43H12.7026L12.0047 42.3007V36.4266L6.14192 29.8531L0 27.0559Z" fill="#3C3C3C"/>
<circle r="1.5" transform="matrix(-1 0 0 1 14.9715 16.528)" fill="#FFCB66"/>
<path d="M50.6364 34.1307V32.3636H59.9205V34.1307H56.3239V44H54.233V34.1307H50.6364ZM61.5131 44V35.2727H63.5074V36.7273H63.5983C63.7574 36.2235 64.0301 35.8352 64.4165 35.5625C64.8066 35.286 65.2517 35.1477 65.7517 35.1477C65.8653 35.1477 65.9922 35.1534 66.1324 35.1648C66.2763 35.1723 66.3956 35.1856 66.4903 35.2045V37.0966C66.4032 37.0663 66.265 37.0398 66.0756 37.017C65.89 36.9905 65.71 36.9773 65.5358 36.9773C65.1608 36.9773 64.8237 37.0587 64.5244 37.2216C64.229 37.3807 63.996 37.6023 63.8256 37.8864C63.6551 38.1705 63.5699 38.4981 63.5699 38.8693V44H61.5131ZM71.0119 44.1761C70.4589 44.1761 69.9608 44.0777 69.5176 43.8807C69.0782 43.6799 68.7297 43.3845 68.4722 42.9943C68.2184 42.6042 68.0915 42.1231 68.0915 41.5511C68.0915 41.0587 68.1824 40.6515 68.3642 40.3295C68.546 40.0076 68.7941 39.75 69.1085 39.5568C69.4229 39.3636 69.7771 39.2178 70.171 39.1193C70.5688 39.017 70.9797 38.9432 71.404 38.8977C71.9153 38.8447 72.3301 38.7973 72.6483 38.7557C72.9665 38.7102 73.1975 38.642 73.3415 38.5511C73.4892 38.4564 73.5631 38.3106 73.5631 38.1136V38.0795C73.5631 37.6515 73.4362 37.3201 73.1824 37.0852C72.9286 36.8504 72.5631 36.733 72.0858 36.733C71.582 36.733 71.1824 36.8428 70.8869 37.0625C70.5953 37.2822 70.3983 37.5417 70.296 37.8409L68.3756 37.5682C68.5271 37.0379 68.7771 36.5947 69.1256 36.2386C69.4741 35.8788 69.9002 35.6098 70.404 35.4318C70.9078 35.25 71.4646 35.1591 72.0744 35.1591C72.4949 35.1591 72.9134 35.2083 73.3301 35.3068C73.7468 35.4053 74.1275 35.5682 74.4722 35.7955C74.8169 36.0189 75.0934 36.3239 75.3017 36.7102C75.5138 37.0966 75.6199 37.5795 75.6199 38.1591V44H73.6426V42.8011H73.5744C73.4494 43.0436 73.2733 43.2708 73.046 43.483C72.8225 43.6913 72.5403 43.8598 72.1994 43.9886C71.8623 44.1136 71.4665 44.1761 71.0119 44.1761ZM71.546 42.6648C71.9589 42.6648 72.3169 42.5833 72.6199 42.4205C72.9229 42.2538 73.1559 42.0341 73.3188 41.7614C73.4854 41.4886 73.5688 41.1913 73.5688 40.8693V39.8409C73.5044 39.8939 73.3945 39.9432 73.2392 39.9886C73.0877 40.0341 72.9172 40.0739 72.7278 40.108C72.5384 40.142 72.3509 40.1723 72.1653 40.1989C71.9797 40.2254 71.8188 40.2481 71.6824 40.267C71.3756 40.3087 71.1009 40.3769 70.8585 40.4716C70.6161 40.5663 70.4248 40.6989 70.2847 40.8693C70.1445 41.036 70.0744 41.2519 70.0744 41.517C70.0744 41.8958 70.2127 42.1818 70.4892 42.375C70.7657 42.5682 71.118 42.6648 71.546 42.6648ZM82.2949 44.1705C81.4237 44.1705 80.6756 43.9792 80.0506 43.5966C79.4294 43.214 78.9502 42.6856 78.6131 42.0114C78.2797 41.3333 78.1131 40.553 78.1131 39.6705C78.1131 38.7841 78.2835 38.0019 78.6244 37.3239C78.9653 36.642 79.4464 36.1117 80.0676 35.733C80.6926 35.3504 81.4312 35.1591 82.2835 35.1591C82.9919 35.1591 83.6187 35.2898 84.1642 35.5511C84.7134 35.8087 85.1509 36.1742 85.4767 36.6477C85.8025 37.1174 85.9881 37.6667 86.0335 38.2955H84.0676C83.9881 37.875 83.7987 37.5246 83.4994 37.2443C83.204 36.9602 82.8081 36.8182 82.3119 36.8182C81.8915 36.8182 81.5222 36.9318 81.204 37.1591C80.8858 37.3826 80.6377 37.7045 80.4597 38.125C80.2854 38.5455 80.1983 39.0492 80.1983 39.6364C80.1983 40.2311 80.2854 40.7424 80.4597 41.1705C80.6339 41.5947 80.8782 41.9223 81.1926 42.1534C81.5108 42.3807 81.8839 42.4943 82.3119 42.4943C82.615 42.4943 82.8858 42.4375 83.1244 42.3239C83.3669 42.2064 83.5695 42.0379 83.7324 41.8182C83.8953 41.5985 84.007 41.3314 84.0676 41.017H86.0335C85.9843 41.6345 85.8025 42.1818 85.4881 42.6591C85.1737 43.1326 84.7456 43.5038 84.204 43.7727C83.6623 44.0379 83.0259 44.1705 82.2949 44.1705ZM90.3974 41.2614L90.3918 38.7784H90.7213L93.8577 35.2727H96.2611L92.4031 39.5682H91.977L90.3974 41.2614ZM88.5224 44V32.3636H90.5793V44H88.5224ZM93.9997 44L91.1588 40.0284L92.5452 38.5795L96.4599 44H93.9997ZM101.936 44.1705C101.061 44.1705 100.305 43.9886 99.669 43.625C99.0365 43.2576 98.5497 42.7386 98.2088 42.0682C97.8679 41.3939 97.6974 40.6004 97.6974 39.6875C97.6974 38.7898 97.8679 38.0019 98.2088 37.3239C98.5535 36.642 99.0346 36.1117 99.652 35.733C100.269 35.3504 100.995 35.1591 101.828 35.1591C102.366 35.1591 102.874 35.2462 103.351 35.4205C103.832 35.5909 104.256 35.8561 104.624 36.2159C104.995 36.5758 105.286 37.0341 105.499 37.5909C105.711 38.1439 105.817 38.803 105.817 39.5682V40.1989H98.6634V38.8125H103.845C103.841 38.4186 103.756 38.0682 103.589 37.7614C103.423 37.4508 103.19 37.2064 102.891 37.0284C102.595 36.8504 102.25 36.7614 101.857 36.7614C101.436 36.7614 101.067 36.8636 100.749 37.0682C100.43 37.2689 100.182 37.5341 100.004 37.8636C99.83 38.1894 99.741 38.5473 99.7372 38.9375V40.1477C99.7372 40.6553 99.83 41.0909 100.016 41.4545C100.201 41.8144 100.461 42.0909 100.794 42.2841C101.127 42.4735 101.518 42.5682 101.964 42.5682C102.264 42.5682 102.535 42.5265 102.777 42.4432C103.019 42.3561 103.23 42.2292 103.408 42.0625C103.586 41.8958 103.72 41.6894 103.811 41.4432L105.732 41.6591C105.61 42.1667 105.379 42.6098 105.038 42.9886C104.701 43.3636 104.269 43.6553 103.743 43.8636C103.216 44.0682 102.614 44.1705 101.936 44.1705ZM108.357 44V35.2727H110.351V36.7273H110.442C110.601 36.2235 110.874 35.8352 111.26 35.5625C111.65 35.286 112.095 35.1477 112.595 35.1477C112.709 35.1477 112.836 35.1534 112.976 35.1648C113.12 35.1723 113.239 35.1856 113.334 35.2045V37.0966C113.247 37.0663 113.109 37.0398 112.919 37.017C112.734 36.9905 112.554 36.9773 112.38 36.9773C112.005 36.9773 111.667 37.0587 111.368 37.2216C111.073 37.3807 110.84 37.6023 110.669 37.8864C110.499 38.1705 110.414 38.4981 110.414 38.8693V44H108.357Z" fill="#3B3B3B"/>
</svg>
